PathFileType  4	(X/Y/Z) C:\Users\antoi\Documents\MyRepositories\mobilecap\ResultsAnalysis
DataRate	CameraRate	NumFrames	NumMarkers	Units	OrigDataRate	OrigDataStartFrame	OrigNumFrames
100.0	100.0	4	51	mm	100.0	84	223
Frame#	Time	r_knee			r_shank_antsup			r_ankle			r_calc			r_5meta			r_toe			L_knee			L_shank_antsup			L_ankle			L_calc			L_5meta			L_toe			r_sh2			r_sh3			r_sh4			L_sh2			L_sh3			r_thigh1			r_thigh2			r_thigh3			r_thigh4			r_thigh5			L_thigh1			L_thigh2			L_thigh3			L_thigh4			r.ASIS			r.PSIS			L.ASIS			L.PSIS			C7			R_Shoulder			L_Shoulder			R_Sternum			L_Sternum			R_humerus			R_elbow_med			R_elbow_lat			R_forearm			R_wrist_radius			R_wrist_ulna			L_humerus			L_elbow_med			L_elbow_lat			L_forearm			L_wrist_radius			L_wrist_ulna			R_HJC			L_HJC			R_HJC_reg			L_HJC_reg			
		X1	Y1	Z1	X2	Y2	Z2	X3	Y3	Z3	X4	Y4	Z4	X5	Y5	Z5	X6	Y6	Z6	X7	Y7	Z7	X8	Y8	Z8	X9	Y9	Z9	X10	Y10	Z10	X11	Y11	Z11	X12	Y12	Z12	X13	Y13	Z13	X14	Y14	Z14	X15	Y15	Z15	X16	Y16	Z16	X17	Y17	Z17	X18	Y18	Z18	X19	Y19	Z19	X20	Y20	Z20	X21	Y21	Z21	X22	Y22	Z22	X23	Y23	Z23	X24	Y24	Z24	X25	Y25	Z25	X26	Y26	Z26	X27	Y27	Z27	X28	Y28	Z28	X29	Y29	Z29	X30	Y30	Z30	X31	Y31	Z31	X32	Y32	Z32	X33	Y33	Z33	X34	Y34	Z34	X35	Y35	Z35	X36	Y36	Z36	X37	Y37	Z37	X38	Y38	Z38	X39	Y39	Z39	X40	Y40	Z40	X41	Y41	Z41	X42	Y42	Z42	X43	Y43	Z43	X44	Y44	Z44	X45	Y45	Z45	X46	Y46	Z46	X47	Y47	Z47	X48	Y48	Z48	X49	Y49	Z49	X50	Y50	Z50	X51	Y51	Z51	

84	0.83000000	-513.46215	778.06709	-422.62320	-467.47101	717.75519	-431.32118	-507.10295	371.46040	-423.07027	-574.63335	361.36792	-466.56296	-421.22514	279.53693	-395.32561	-362.41839	300.88689	-440.58725	-496.30923	791.10208	-766.37448	-447.82986	709.86858	-778.90724	-457.38973	392.76502	-784.83405	-520.41577	379.38087	-731.63154	-373.56103	292.98153	-819.45619	-321.94155	314.11519	-774.55113	-480.87636	604.82702	-403.96386	-546.57909	723.11382	-408.94650	-554.12743	611.00980	-402.42655	-535.89473	705.41041	-780.29449	-516.79564	585.19346	-798.42001	-542.85579	1101.06887	-411.17940	-514.97105	991.56909	-410.97449	-563.94406	955.99828	-382.31508	-651.84095	1071.74490	-399.06791	-617.88425	959.48241	-397.81123	-543.40734	1059.62882	-796.55201	-495.03532	931.45844	-778.31673	-648.94023	1020.51698	-762.63261	-593.81842	891.18507	-760.70252	-541.78562	1247.91876	-457.71865	-711.12884	1312.38730	-547.55205	-521.32593	1236.54435	-701.75644	-709.74733	1318.70502	-644.75697	-545.13107	1712.67994	-610.30860	-468.29259	1677.24274	-446.19807	-470.43030	1658.92875	-769.95402	-422.98806	1625.46916	-581.25861	-419.01593	1623.41282	-622.27118	-506.64032	1600.04333	-332.03707	-636.75961	1424.20237	-269.50190	-605.92269	1471.26070	-212.32241	-475.89777	1426.89232	-236.16174	-360.87147	1376.11770	-267.68490	-361.39406	1353.10492	-240.17939	-492.19846	1571.78454	-854.64592	-644.76013	1381.25935	-876.73472	-600.32537	1412.96544	-942.23356	-508.39798	1366.24628	-893.27991	-400.15403	1279.43558	-838.23669	-402.16179	1261.29790	-867.50469	-626.15015	1180.04595	-483.78416	-611.03158	1177.31411	-689.68250	-613.59817	1175.14394	-496.86743	-611.30261	1185.63664	-658.31430	
85	0.84000000	-501.44547	762.62474	-422.69804	-454.30661	704.38635	-430.93765	-481.75295	356.46150	-421.61763	-548.34451	345.44310	-465.61411	-394.19776	265.53823	-393.99474	-335.52248	288.07391	-438.84282	-487.98396	773.91555	-767.42367	-438.49677	693.73393	-780.37155	-442.90853	376.13376	-787.59183	-505.48732	362.13807	-733.88061	-357.91302	276.56732	-820.85344	-306.40293	299.06763	-777.17152	-463.70525	591.01116	-403.37637	-533.87837	706.49848	-409.21109	-536.71694	593.13716	-402.36983	-526.40706	687.58988	-781.71549	-505.26633	567.82203	-800.32874	-533.01426	1085.45374	-411.76448	-504.18727	975.62864	-412.04209	-552.80904	940.09741	-382.54465	-641.53320	1055.27928	-398.55960	-607.02660	943.10239	-397.85331	-534.30239	1042.07910	-797.25720	-486.60626	913.67112	-778.59382	-639.94812	1003.58446	-763.00498	-585.54057	873.90365	-761.13111	-531.49413	1231.81787	-457.56002	-700.69154	1296.37841	-547.97951	-511.03445	1219.78258	-701.80808	-699.24645	1302.48568	-645.40136	-533.79452	1695.96981	-611.99519	-457.07521	1663.36252	-448.36806	-458.80672	1642.83026	-770.46700	-411.98045	1608.85625	-581.88987	-407.58635	1607.01247	-623.82609	-496.81493	1589.70966	-332.86121	-632.97506	1419.17515	-267.12151	-601.81618	1468.08989	-210.39141	-472.40209	1421.94855	-232.13831	-357.47302	1369.69017	-261.87268	-358.50219	1347.14693	-234.00924	-481.13426	1557.78771	-856.31254	-635.81660	1369.59293	-882.88412	-591.39833	1402.77410	-947.61471	-499.23037	1357.29829	-899.55620	-389.55275	1272.18498	-844.44213	-391.12434	1254.28313	-874.16734	-616.08578	1164.08200	-483.74943	-600.75231	1160.73066	-689.62217	-603.48397	1158.95990	-496.62830	-601.08576	1169.09206	-658.25800	
86	0.85000000	-489.67726	746.08196	-422.81348	-441.17940	689.31350	-430.82104	-457.38476	340.66526	-420.26580	-523.16471	328.27545	-464.82115	-367.94015	251.37398	-392.43455	-309.53913	275.00082	-436.99620	-479.00337	755.96159	-768.64838	-428.57843	676.55859	-781.96112	-429.13827	358.65568	-790.18344	-491.31636	344.27614	-736.23025	-343.21861	259.54444	-823.04876	-291.76922	282.75769	-779.83602	-447.00297	575.69277	-403.01721	-521.19969	688.75380	-409.47463	-519.74054	574.57513	-402.18573	-516.34509	669.15842	-783.33678	-493.68504	549.70789	-802.20810	-523.11651	1068.70578	-411.91872	-493.63056	958.72521	-412.79601	-542.04313	922.99875	-383.00588	-631.31773	1037.86287	-398.38472	-596.44560	925.76635	-398.10384	-525.26629	1023.64896	-797.75356	-477.79950	895.15628	-779.01743	-630.80167	985.36014	-762.95677	-576.81440	855.68678	-761.79403	-520.81691	1214.66579	-457.48944	-690.08742	1279.17926	-548.32912	-500.46758	1202.27002	-701.48449	-688.80198	1285.13363	-645.72303	-522.56981	1678.16123	-613.58391	-445.99264	1648.21078	-450.65410	-447.36103	1625.93415	-770.94689	-400.72458	1591.26596	-582.95440	-396.31327	1589.74991	-625.12077	-487.30018	1578.57940	-333.86672	-629.38117	1413.63713	-265.23055	-597.79933	1464.15203	-209.20064	-468.94320	1416.44074	-228.63159	-354.14281	1362.74488	-256.33069	-355.72792	1340.70655	-228.06953	-470.03223	1542.99237	-858.16562	-626.72281	1357.00225	-889.10440	-582.33891	1391.76319	-952.91601	-489.68212	1347.54527	-905.64875	-378.64390	1264.20798	-850.79811	-379.86492	1246.57095	-880.90097	-605.61291	1146.99206	-483.62148	-590.12678	1143.21667	-689.47841	-592.76159	1141.87662	-496.26951	-590.62971	1151.74956	-657.75432	
87	0.86000000	-478.06233	728.38728	-423.10863	-428.11506	672.90612	-430.85486	-434.21745	323.93064	-419.31630	-499.32486	310.28346	-463.77421	-342.74695	236.63163	-390.83764	-284.70608	261.29447	-435.23797	-469.29468	737.21773	-769.86616	-418.02113	658.32283	-783.37610	-416.09868	340.42011	-792.67218	-478.20320	325.66901	-738.88511	-329.47768	241.44560	-825.20074	-278.17845	265.17664	-782.08602	-430.80145	559.07199	-402.82708	-508.13874	670.05337	-409.66350	-503.50782	556.04535	-402.01651	-505.66624	650.26781	-785.01361	-482.07610	531.06258	-804.07306	-513.08698	1050.68039	-411.82530	-483.27043	940.84190	-413.11940	-531.57236	904.66402	-383.60614	-621.12131	1019.47678	-398.37225	-585.94944	907.52055	-398.43908	-516.23353	1004.53453	-798.20873	-468.53525	876.09069	-779.66269	-621.48067	965.99288	-762.78446	-567.51314	836.44121	-762.49871	-509.85696	1196.43232	-457.61850	-679.31375	1260.76161	-548.41529	-490.18460	1183.52749	-701.14969	-678.26270	1266.52645	-645.58354	-511.48056	1659.29769	-615.05545	-434.83379	1631.82041	-452.83338	-436.13206	1608.22480	-771.39071	-389.46543	1572.81540	-584.05647	-385.13984	1571.57445	-626.64353	-478.16841	1566.66226	-335.06076	-625.90446	1407.50311	-263.88290	-593.90203	1459.18523	-208.89893	-465.50266	1410.07404	-225.66197	-350.87252	1355.08585	-251.02094	-353.08400	1333.59702	-222.51880	-458.95112	1527.36817	-860.11480	-617.51994	1343.49872	-895.16229	-573.08984	1379.89530	-958.21145	-479.94407	1336.91284	-911.49278	-367.58284	1255.41098	-857.24008	-368.51461	1238.34776	-887.73239	-594.82794	1128.75808	-483.29985	-579.67325	1124.45894	-689.17064	-581.87503	1123.67326	-496.00503	-580.13182	1133.23623	-657.18857	
